<?xml version="1.0" standalone="no"?>
<svg viewBox="0 0 200 200" xmlns="http://www.w3.org/2000/svg">
  <path fill="#A7F0BA" d="M32.2,-60C40.6,-50.9,45.6,-40,53,-29.7C60.5,-19.5,70.3,-9.7,71.7,0.8C73.1,11.3,66,22.6,59,33.8C52.1,45,45.4,55.9,35.6,65.6C25.8,75.2,12.9,83.4,-1.1,85.4C-15.1,87.4,-30.3,83,-41.7,74.3C-53.1,65.6,-60.7,52.5,-68.5,39.4C-76.2,26.3,-84.1,13.2,-80.6,2C-77.1,-9.1,-62.2,-18.2,-55.2,-32.6C-48.1,-46.9,-48.9,-66.5,-41,-76C-33.1,-85.4,-16.6,-84.8,-2.3,-80.7C11.9,-76.7,23.7,-69.2,32.2,-60Z" transform="translate(100 100)" />
</svg>
