<?xml version="1.0" standalone="no"?>
<svg viewBox="0 0 200 200" xmlns="http://www.w3.org/2000/svg">
  <path fill="#A7F0BA" d="M38.3,-66.3C51.3,-58.8,64.6,-51.9,71,-40.9C77.4,-30,76.8,-15,77.7,0.5C78.7,16.1,81.1,32.2,74,41.9C66.9,51.6,50.3,55,36.4,62.2C22.4,69.4,11.2,80.5,-1.4,82.9C-14,85.3,-28,79.1,-40.8,71.2C-53.6,63.3,-65.2,53.8,-73.2,41.7C-81.2,29.5,-85.8,14.8,-83.7,1.2C-81.6,-12.3,-72.9,-24.7,-63.4,-34.3C-53.8,-43.8,-43.4,-50.6,-32.8,-59.4C-22.1,-68.2,-11,-79.1,0.8,-80.5C12.6,-81.9,25.3,-73.8,38.3,-66.3Z" transform="translate(100 100)" />
</svg>
